<svg id="Layer_1" data-name="Layer 1" xmlns="http://www.w3.org/2000/svg" viewBox="0 0 30 30"><defs><style>.cls-1{fill:#fff;}.cls-2{fill:#1769e6;}</style></defs><title>gear_30</title><circle class="cls-1" cx="15" cy="15" r="15"/><path class="cls-2" d="M26,13.42v3.16a.85.85,0,0,1-.76.5c-.53,0-1.06.12-1.59.18a.19.19,0,0,0-.2.17,9.73,9.73,0,0,1-.77,1.86.19.19,0,0,0,0,.19c.36.48.73.94,1.1,1.41a.65.65,0,0,1-.05.9c-.61.63-1.23,1.25-1.85,1.87a.7.7,0,0,1-1.09.07l-1.33-1a.19.19,0,0,0-.19,0,9.22,9.22,0,0,1-1.81.75.27.27,0,0,0-.23.27c-.05.52-.13,1-.17,1.54a.85.85,0,0,1-.5.76H13.42a.78.78,0,0,1-.48-.66c0-.56-.13-1.13-.2-1.69a.19.19,0,0,0-.17-.2,8.42,8.42,0,0,1-1.86-.78.17.17,0,0,0-.2,0L9.11,23.8a.66.66,0,0,1-.91,0l-1.94-2a.66.66,0,0,1,0-.93c.36-.46.73-.93,1.08-1.4a.19.19,0,0,0,0-.19,8.78,8.78,0,0,1-.76-1.85.21.21,0,0,0-.21-.18c-.53-.06-1-.14-1.57-.18a.86.86,0,0,1-.78-.5V13.42a.79.79,0,0,1,.64-.48c.57,0,1.14-.13,1.71-.2a.19.19,0,0,0,.2-.16,9.82,9.82,0,0,1,.77-1.87.19.19,0,0,0,0-.19C6.94,10,6.56,9.57,6.19,9.1a.68.68,0,0,1,0-.86l2-2a.65.65,0,0,1,.93,0c.46.37.93.73,1.4,1.09a.19.19,0,0,0,.19,0,9.47,9.47,0,0,1,1.86-.77.19.19,0,0,0,.17-.2c.06-.53.14-1.06.18-1.59a.85.85,0,0,1,.5-.76h3.16a.85.85,0,0,1,.5.76c0,.53.12,1.06.18,1.59a.21.21,0,0,0,.17.21,8.86,8.86,0,0,1,1.86.76.21.21,0,0,0,.19,0l1.43-1.11a.66.66,0,0,1,.85,0l2,2a.64.64,0,0,1,0,.9c-.36.47-.73.94-1.1,1.4a.17.17,0,0,0,0,.21,8.35,8.35,0,0,1,.78,1.85.19.19,0,0,0,.2.17c.53.06,1.06.14,1.59.18A.85.85,0,0,1,26,13.42ZM15,20.5A5.5,5.5,0,1,0,9.5,15,5.49,5.49,0,0,0,15,20.5Z" transform="translate(0 0)"/></svg>