<svg id="Layer_1" data-name="Layer 1" xmlns="http://www.w3.org/2000/svg" viewBox="0 0 30 30"><defs><style>.cls-1{fill:#fff;}.cls-2{fill:#4776c9;}</style></defs><title>Artboard 1</title><circle class="cls-1" cx="15" cy="15" r="15"/><path class="cls-2" d="M11,11.22l5.41-.16V22.75a.87.87,0,0,0,.23.68,1.22,1.22,0,0,0,.84.3H19v1.08H11.28V23.73h1.44A1.09,1.09,0,0,0,14,22.51V14a1.54,1.54,0,0,0-.47-1.22,2,2,0,0,0-1.37-.42H11Zm3.77-8.1a1.57,1.57,0,0,1,1.15.49,1.59,1.59,0,0,1,.49,1.16,1.54,1.54,0,0,1-.48,1.13,1.56,1.56,0,0,1-1.14.48,1.64,1.64,0,0,1-1.64-1.62,1.57,1.57,0,0,1,.49-1.15A1.56,1.56,0,0,1,14.76,3.12Z"/></svg>