<?xml version="1.0" encoding="utf-8"?>
<!-- Generator: Adobe Illustrator 23.0.0, SVG Export Plug-In . SVG Version: 6.00 Build 0)  -->
<svg version="1.1" id="Layer_1" xmlns="http://www.w3.org/2000/svg" xmlns:xlink="http://www.w3.org/1999/xlink" x="0px" y="0px"
	 viewBox="0 0 50 50" style="enable-background:new 0 0 50 50;" xml:space="preserve">
<style type="text/css">
	.st0{fill:#1769E6;}
	.st1{fill:#030303;}
	.st2{fill:#FEFEFE;}
</style>
<circle class="st2" cx="25" cy="25" r="25"/>
<path class="st1" d="M25.34,36.08c-2.76-0.04-5.4-0.54-7.94-1.5c-4.71-1.77-8.77-4.54-12.37-8.03c-0.54-0.52-0.55-1.15,0.01-1.69
	c3.68-3.58,7.84-6.4,12.69-8.14c3.11-1.12,6.31-1.59,9.61-1.26c2.36,0.24,4.63,0.84,6.82,1.74c4.34,1.8,8.13,4.43,11.47,7.72
	c0.23,0.22,0.39,0.47,0.38,0.8c-0.01,0.3-0.15,0.53-0.36,0.74c-1.74,1.75-3.66,3.29-5.71,4.66c-2.35,1.57-4.85,2.85-7.54,3.74
	C30.09,35.64,27.72,36.04,25.34,36.08z M6.84,25.74c0.09,0.05,0.16,0.08,0.21,0.13c0.58,0.5,1.15,1.02,1.74,1.5
	c3.04,2.46,6.34,4.46,10.06,5.71c2.14,0.72,4.34,1.12,6.6,1.1c2.89-0.03,5.63-0.72,8.28-1.85c3.32-1.41,6.28-3.38,9-5.73
	c0.33-0.28,0.65-0.58,0.99-0.88c-0.08-0.07-0.13-0.13-0.19-0.18c-1.79-1.65-3.72-3.12-5.8-4.38c-3.06-1.86-6.31-3.23-9.88-3.74
	c-2.23-0.32-4.44-0.2-6.64,0.27c-1.68,0.36-3.29,0.92-4.85,1.62c-3.12,1.41-5.93,3.29-8.51,5.52C7.52,25.12,7.21,25.41,6.84,25.74z"
	/>
<path class="st2" d="M6.84,25.74c0.38-0.34,0.69-0.63,1.01-0.91c2.58-2.23,5.39-4.12,8.51-5.52c1.56-0.7,3.18-1.26,4.85-1.62
	c2.2-0.47,4.41-0.59,6.64-0.27c3.57,0.51,6.82,1.88,9.88,3.74c2.08,1.26,4.01,2.73,5.8,4.38c0.06,0.05,0.11,0.11,0.19,0.18
	c-0.34,0.3-0.66,0.6-0.99,0.88c-2.72,2.35-5.69,4.32-9,5.73c-2.64,1.13-5.39,1.82-8.28,1.85c-2.26,0.02-4.46-0.38-6.6-1.1
	c-3.73-1.25-7.02-3.25-10.06-5.71c-0.6-0.48-1.16-1-1.74-1.5C6.99,25.83,6.92,25.8,6.84,25.74z M25.31,17.99
	c-4.26-0.01-7.73,3.44-7.74,7.71c-0.01,4.25,3.43,7.72,7.69,7.74c4.27,0.02,7.76-3.46,7.76-7.72C33.03,21.47,29.57,18,25.31,17.99z"
	/>
<ellipse class="st0" cx="25.25" cy="25.79" rx="6.61" ry="6.75"/>
<path class="st1" d="M25.31,17.99c4.25,0.01,7.71,3.48,7.71,7.73c0,4.27-3.49,7.74-7.76,7.72c-4.25-0.02-7.7-3.48-7.69-7.74
	C17.59,21.43,21.05,17.97,25.31,17.99z M29.21,30.04c1.63-1.43,2.51-4.01,1.5-6.53c-0.94-2.33-3.35-3.82-5.88-3.62
	c-2.54,0.2-4.65,2.02-5.23,4.55c-0.52,2.27,0.43,4.48,1.79,5.57c0.52-1.03,1.03-2.06,1.54-3.09c0.03-0.06,0-0.17-0.04-0.22
	c-0.56-0.72-0.81-1.52-0.7-2.43c0.17-1.45,1.45-2.67,2.92-2.72c1.26-0.04,2.25,0.46,2.89,1.55c0.64,1.1,0.62,2.24-0.1,3.28
	c-0.26,0.38-0.23,0.63-0.04,0.99C28.32,28.23,28.75,29.13,29.21,30.04z"/>
</svg>
